<?xml version="1.0" encoding="UTF-8" standalone="no"?>
<svg
   xmlns:dc="http://purl.org/dc/elements/1.1/"
   xmlns:cc="http://creativecommons.org/ns#"
   xmlns:rdf="http://www.w3.org/1999/02/22-rdf-syntax-ns#"
   xmlns:svg="http://www.w3.org/2000/svg"
   xmlns="http://www.w3.org/2000/svg"
   xmlns:sodipodi="http://sodipodi.sourceforge.net/DTD/sodipodi-0.dtd"
   xmlns:inkscape="http://www.inkscape.org/namespaces/inkscape"
   width="32"
   height="32"
   viewBox="0 0 12.799193 12.799193"
   id="svg2"
   version="1.1"
   inkscape:version="0.91 r13725"
   sodipodi:docname="github-logo.svg">
  <metadata
     id="metadata10">
    <rdf:RDF>
      <cc:Work
         rdf:about="">
        <dc:format>image/svg+xml</dc:format>
        <dc:type
           rdf:resource="http://purl.org/dc/dcmitype/StillImage" />
        <dc:title />
      </cc:Work>
    </rdf:RDF>
  </metadata>
  <defs
     id="defs8" />
  <sodipodi:namedview
     pagecolor="#ffffff"
     bordercolor="#666666"
     borderopacity="1"
     objecttolerance="10"
     gridtolerance="10"
     guidetolerance="10"
     inkscape:pageopacity="0"
     inkscape:pageshadow="2"
     inkscape:window-width="1600"
     inkscape:window-height="825"
     id="namedview6"
     showgrid="false"
     fit-margin-top="0"
     fit-margin-left="0"
     fit-margin-right="0"
     fit-margin-bottom="0"
     inkscape:snap-global="true"
     inkscape:zoom="11.313708"
     inkscape:cx="13.978477"
     inkscape:cy="16.664854"
     inkscape:window-x="0"
     inkscape:window-y="25"
     inkscape:window-maximized="1"
     inkscape:current-layer="svg2" />
  <path
     d="M -3.0886841e-7,6.3995904 C -3.0886841e-7,4.6330366 0.62495973,3.1247996 1.8748925,1.8748793 3.1247999,0.62495913 4.6330368,-3.8144591e-7 6.3996033,-3.8144591e-7 c 1.7665408,0 3.274778,0.62495951144591 4.5247117,1.87487968144591 1.249907,1.2499203 1.874879,2.7581573 1.874879,4.5247111 0,1.7665536 -0.624959,3.2747908 -1.874879,4.5247106 -1.2499208,1.24992 -2.7581581,1.874893 -4.5247117,1.874893 -1.7665665,0 -3.2748034,-0.62496 -4.5247108,-1.874893 C 0.62495973,9.6743941 -3.0886841e-7,8.1661313 -3.0886841e-7,6.3995904 Z m 0.69995523886841,0 c 0,1.5665792 0.55829767,2.9081476 1.67489287,4.0247556 1.1165953,1.116583 2.4581762,1.674893 4.0247555,1.674893 1.5665664,0 2.9081469,-0.558298 4.0247427,-1.674893 1.116595,-1.1165959 1.674893,-2.4581764 1.674893,-4.0247556 0,-1.5665666 -0.558285,-2.9081475 -1.674893,-4.0247428 C 9.3077502,1.2582519 7.9661569,0.69995441 6.3996033,0.69995441 4.833024,0.69995441 3.4914559,1.2582519 2.3748478,2.3748476 1.2582526,3.4914429 0.69995493,4.8330238 0.69995493,6.3995904 Z M 2.4998526,7.7745023 c -0.033331,-0.033331 -0.033331,-0.066662 0,-0.099994 0.06665,-0.066662 0.1499904,-0.091661 0.2499712,-0.074995 0.099994,0.016666 0.1583233,0.033331 0.1749889,0.049997 0.1166591,0.049997 0.245824,0.1624832 0.3874688,0.3374848 C 3.4539263,8.161984 3.5664254,8.2828033 3.6497663,8.3494656 4.0497407,8.6827775 4.4580352,8.707776 4.8746751,8.4244608 4.9080061,8.3078017 4.9621761,8.207808 5.0371584,8.1244671 5.1121404,8.0411392 5.1829888,7.9828224 5.2496513,7.9494785 5.3163263,7.9161472 5.4329856,7.8661504 5.5996417,7.7994881 5.0496641,7.7494912 4.6038655,7.6536576 4.2622208,7.512 3.920576,7.3703424 3.6497535,7.1911936 3.4497663,6.9745408 3.1831167,6.67456 3.0206207,6.2829184 2.9622911,5.7996159 2.9039491,5.3163135 2.9414531,4.874675 3.0747902,4.4747006 3.1747842,4.2247166 3.3164415,3.9997438 3.4997503,3.7997437 3.3664255,3.3831037 3.3914239,2.9081336 3.5747453,2.3748347 4.1080446,2.4081662 4.5913469,2.5914873 5.0246526,2.9247999 5.8579326,2.7081471 6.724544,2.6998141 7.6244734,2.8998014 7.7411327,2.816473 7.9202943,2.7123194 8.1619328,2.5873153 8.4035839,2.4623231 8.707738,2.3914879 9.074381,2.3748218 c 0.066662,0.183322 0.112499,0.3999746 0.1374974,0.6499589 0.024998,0.2499838 0.012506,0.4833023 -0.037491,0.699955 0.3832964,0.3999744 0.5832838,0.9332738 0.5999491,1.5998977 0,0.5332993 -0.091648,0.9749378 -0.2749697,1.3249152 C 9.3160456,6.9995263 8.9910663,7.2911744 8.5244293,7.52448 8.2077828,7.6744831 7.7911429,7.7661312 7.2745091,7.7994624 7.5078404,7.9161216 7.6786564,8.0369536 7.7869829,8.1619457 7.8953221,8.2869377 7.9661445,8.4827521 7.9994884,8.7494018 l 0,0.7874691 0.024986,0.7624451 c 0.049997,0.08334 0.1083393,0.154163 0.1750016,0.212505 0.066662,0.05833 0.124992,0.09999 0.1749889,0.124993 0.049984,0.025 0.066662,0.0625 0.049984,0.112499 -0.016666,0.05 -0.083328,0.075 -0.1999744,0.075 -0.283328,0 -0.5083009,-0.09999 -0.6749568,-0.299994 -0.049998,-0.08333 -0.074996,-0.183313 -0.074996,-0.299986 l 0,-1.1999236 c 0,-0.1333243 -0.033331,-0.2291579 -0.099994,-0.2874879 C 7.3078657,8.6785796 7.241203,8.641088 7.1745405,8.6244224 l 0,1.5748996 c 0,0.283315 0.033331,0.466637 0.099994,0.549965 0.066662,0.08333 0.1083265,0.166668 0.1250047,0.249984 0.016666,0.01666 0.00416,0.02916 -0.037504,0.03749 -0.041651,0.0083 -0.1124864,-0.0042 -0.2124927,-0.03749 -0.2166528,-0.05 -0.3666432,-0.162496 -0.4499713,-0.337485 -0.083328,-0.174989 -0.124992,-0.362483 -0.124992,-0.56247 l 0,-1.5498632 -0.3249791,0 0,1.5499012 c 0,0.199987 -0.041677,0.391654 -0.1250048,0.574963 -0.1166465,0.233331 -0.333312,0.35831 -0.6499457,0.374976 -0.049997,-0.01667 -0.074995,-0.03333 -0.074995,-0.04998 0.016666,-0.01668 0.066663,-0.09999 0.1499905,-0.249985 0.016666,-0.03333 0.037504,-0.09999 0.062502,-0.199987 0.025011,-0.09999 0.037504,-0.216653 0.037504,-0.349978 l 0,-1.5749119 c -0.066662,0.016663 -0.1291648,0.054153 -0.1874944,0.1124964 -0.05833,0.058342 -0.087501,0.1541626 -0.087501,0.2874878 l 0,1.1999237 c 0,0.116647 -0.024998,0.216652 -0.074995,0.299981 -0.1499904,0.199987 -0.374976,0.299993 -0.674944,0.299993 -0.1166593,0 -0.1833216,-0.025 -0.1999872,-0.07499 -0.016679,-0.03333 -0.012506,-0.0625 0.012506,-0.0875 0.025011,-0.025 0.062502,-0.05417 0.1124992,-0.0875 0.049997,-0.03333 0.083328,-0.05834 0.099994,-0.075 0.066662,-0.05 0.1166465,-0.116659 0.1499905,-0.199987 0.049997,-0.06666 0.06249,-0.241651 0.037491,-0.524967 C 4.8122122,9.4910721 4.8080392,9.3077501 4.8247042,9.2244226 4.3913858,9.3744131 3.9497602,9.2994049 3.4997762,8.9994369 3.3664513,8.8661116 3.2331265,8.6744444 3.0998018,8.4244737 2.9998078,8.2411392 2.799821,8.0244864 2.4998529,7.7745023 Z"
     id="path4"
     inkscape:connector-curvature="0"
     style="fill:#ffffff" />
</svg>
