<?xml version="1.0" encoding="UTF-8" standalone="no"?>
<!-- Generator: Adobe Illustrator 14.0.0, SVG Export Plug-In . SVG Version: 6.00 Build 43363)  -->

<svg
   xmlns:dc="http://purl.org/dc/elements/1.1/"
   xmlns:cc="http://creativecommons.org/ns#"
   xmlns:rdf="http://www.w3.org/1999/02/22-rdf-syntax-ns#"
   xmlns:svg="http://www.w3.org/2000/svg"
   xmlns="http://www.w3.org/2000/svg"
   xmlns:sodipodi="http://sodipodi.sourceforge.net/DTD/sodipodi-0.dtd"
   xmlns:inkscape="http://www.inkscape.org/namespaces/inkscape"
   version="1.1"
   id="Layer_1"
   x="0px"
   y="0px"
   width="180.468"
   height="48.417999"
   viewBox="0 0 180.468 48.417998"
   xml:space="preserve"
   inkscape:version="0.91 r13725"
   sodipodi:docname="nbu_logo_white.svg"><metadata
     id="metadata11"><rdf:RDF><cc:Work
         rdf:about=""><dc:format>image/svg+xml</dc:format><dc:type
           rdf:resource="http://purl.org/dc/dcmitype/StillImage" /><dc:title></dc:title></cc:Work></rdf:RDF></metadata><defs
     id="defs9" /><sodipodi:namedview
     pagecolor="#ffffff"
     bordercolor="#666666"
     borderopacity="1"
     objecttolerance="10"
     gridtolerance="10"
     guidetolerance="10"
     inkscape:pageopacity="0"
     inkscape:pageshadow="2"
     inkscape:window-width="1600"
     inkscape:window-height="825"
     id="namedview7"
     showgrid="false"
     fit-margin-top="0"
     fit-margin-left="0"
     fit-margin-right="0"
     fit-margin-bottom="0"
     inkscape:zoom="1.7794872"
     inkscape:cx="5.4293948"
     inkscape:cy="23.335999"
     inkscape:window-x="0"
     inkscape:window-y="25"
     inkscape:window-maximized="1"
     inkscape:current-layer="Layer_1" /><path
     style="fill:#ffffff"
     d="m 35.855,9.537 -1.787,0 0,0.085 0,0.111 0,0.123 0,0.136 0,0.134 0,0.123 0,0.111 0,0.085 -0.024,0.848 -0.06,0.834 -0.108,0.822 -0.142,0.82 -0.18,0.799 -0.214,0.774 -0.263,0.773 -0.286,0.749 -0.332,0.738 -0.359,0.713 -0.382,0.688 -0.429,0.673 -0.453,0.639 -0.477,0.625 -0.513,0.604 -0.537,0.577 -0.56,0.552 -0.583,0.515 -0.608,0.491 -0.645,0.456 -0.644,0.441 -0.68,0.394 -0.704,0.368 -0.702,0.333 -0.741,0.295 -0.75,0.258 -0.764,0.221 -0.774,0.193 -0.788,0.137 -0.811,0.111 -0.812,0.063 -0.822,0.023 -0.822,-0.023 -0.81,-0.063 L 15.478,26.775 14.69,26.638 13.915,26.445 13.153,26.224 12.401,25.966 11.674,25.671 10.957,25.338 10.265,24.97 9.587,24.576 8.932,24.135 8.3,23.679 7.692,23.188 7.109,22.673 6.548,22.121 6.011,21.544 5.499,20.94 5.022,20.315 4.57,19.676 4.139,19.003 3.759,18.315 3.39,17.603 3.068,16.865 2.78,16.117 2.518,15.344 2.303,14.57 2.125,13.77 1.982,12.95 1.874,12.128 1.812,11.294 1.789,10.446 l 0,-0.086 0,-0.111 0,-0.123 0,-0.134 0,-0.136 0,-0.123 0,-0.111 0,-0.085 -1.789,0 0,20.637 0.024,0.934 0.071,0.934 0.107,0.91 0.155,0.895 0.203,0.883 0.238,0.87 0.285,0.85 0.322,0.822 0.359,0.809 0.393,0.789 0.429,0.758 0.465,0.752 0.5,0.711 0.537,0.686 0.561,0.666 0.597,0.625 0.62,0.613 0.656,0.566 0.667,0.551 0.704,0.504 0.728,0.479 0.75,0.443 0.776,0.391 0.798,0.367 0.81,0.334 0.836,0.279 0.846,0.246 0.871,0.211 0.882,0.16 0.895,0.107 0.919,0.074 0.918,0.025 0.918,-0.025 0.918,-0.074 0.894,-0.107 0.883,-0.16 0.871,-0.211 0.847,-0.246 0.834,-0.279 0.823,-0.334 0.787,-0.367 0.774,-0.391 0.751,-0.443 0.726,-0.479 0.705,-0.504 0.679,-0.551 0.644,-0.566 0.632,-0.613 0.583,-0.625 0.574,-0.666 0.524,-0.686 0.5,-0.711 0.467,-0.752 0.44,-0.758 0.394,-0.789 0.358,-0.809 0.322,-0.822 0.275,-0.85 0.251,-0.869 0.191,-0.885 0.167,-0.895 0.107,-0.91 0.072,-0.934 0.023,-0.934 -0.001,-20.636 0,0 z m -17.934,14.403 0.609,-0.012 0.597,-0.05 0.583,-0.075 0.584,-0.11 0.573,-0.136 0.549,-0.159 0.548,-0.183 0.535,-0.221 0.513,-0.235 0.514,-0.269 0.488,-0.281 0.477,-0.319 0.464,-0.332 0.441,-0.357 0.429,-0.381 0.405,-0.392 0.381,-0.417 0.372,-0.431 0.356,-0.453 0.323,-0.479 0.31,-0.48 0.275,-0.503 0.263,-0.517 0.237,-0.527 0.202,-0.54 0.192,-0.563 0.154,-0.564 0.13,-0.578 0.107,-0.588 0.072,-0.603 0.047,-0.601 L 29.663,11.97 29.651,11.358 29.604,10.755 29.532,10.153 29.425,9.564 29.295,8.986 29.141,8.423 28.951,7.86 28.749,7.319 28.511,6.789 28.247,6.273 27.972,5.77 27.662,5.291 27.34,4.811 26.983,4.357 26.612,3.927 26.231,3.51 25.826,3.116 25.397,2.735 24.956,2.379 24.49,2.049 24.013,1.729 23.524,1.445 23.011,1.176 22.498,0.943 21.963,0.723 21.415,0.54 20.866,0.38 20.294,0.245 19.71,0.135 19.127,0.061 18.53,0.012 17.919,0 17.312,0.012 16.715,0.061 16.131,0.135 15.548,0.245 14.986,0.38 14.428,0.54 13.88,0.724 13.342,0.946 12.831,1.178 12.318,1.448 11.828,1.731 11.351,2.051 10.897,2.382 10.443,2.738 10.027,3.12 9.622,3.513 9.228,3.93 8.858,4.361 8.512,4.815 8.19,5.294 7.88,5.772 7.594,6.275 7.346,6.788 7.107,7.316 6.903,7.857 6.713,8.421 6.559,8.985 6.428,9.563 6.322,10.151 6.25,10.752 6.201,11.356 6.19,11.969 l 0.011,0.613 0.049,0.602 0.072,0.603 0.106,0.588 0.131,0.577 0.155,0.565 0.19,0.563 0.204,0.541 0.239,0.527 0.25,0.517 0.286,0.502 0.311,0.48 0.322,0.479 0.346,0.454 0.37,0.432 0.394,0.416 0.404,0.392 0.418,0.381 0.453,0.356 0.454,0.332 0.477,0.319 0.49,0.282 0.513,0.269 0.511,0.234 0.538,0.221 0.548,0.184 0.561,0.158 0.561,0.136 0.583,0.11 0.584,0.075 0.597,0.049 0.603,0.014 0,0 z"
     id="path3"
     inkscape:connector-curvature="0" /><path
     style="fill:#ffffff"
     d="M 58.901,8.971 C 58.88,9.205 58.87,9.339 58.87,9.375 c -0.032,0.316 -0.065,1.045 -0.106,2.181 -0.023,0.552 -0.033,1.109 -0.033,1.672 l 0,3.362 c 0,0.441 0.01,0.924 0.033,1.436 0.033,1.008 0.06,1.756 0.09,2.24 0.008,0.071 0.015,0.137 0.021,0.206 0.006,0.063 0.014,0.142 0.027,0.231 l -2.805,0 c 0.034,-0.143 0.051,-0.247 0.051,-0.318 l 0.031,-0.916 0.051,-1.037 0,-3.412 -0.254,-0.017 c -1.564,-0.024 -2.388,-0.035 -2.466,-0.035 -0.461,0 -1.15,0.011 -2.065,0.035 l -0.278,0.017 0,3.374 c 0,0.342 0.012,0.678 0.033,1.006 0.026,0.611 0.056,1.044 0.087,1.303 l -2.792,0 0.016,-0.37 0.103,-2.284 0.051,-1.501 0,-3.271 c 0,0.015 -0.01,-0.449 -0.034,-1.386 -0.039,-1.01 -0.075,-1.85 -0.105,-2.517 C 48.52,9.342 48.513,9.277 48.507,9.18 48.5,9.084 48.496,9.015 48.494,8.97 l 2.792,0 -0.015,0.246 c -0.073,0.75 -0.107,1.379 -0.107,1.883 l 0,2.636 c 0.104,0.011 0.189,0.017 0.263,0.017 0.481,0.023 1.148,0.036 1.995,0.036 l 0.326,0 c 0.967,0 1.692,-0.013 2.174,-0.036 0.078,0 0.182,-0.006 0.307,-0.017 l 0,-2.777 c 0,-0.15 -0.017,-0.443 -0.051,-0.88 -0.022,-0.512 -0.05,-0.883 -0.082,-1.107 l 2.805,0 0,0 z m 8.501,-0.264 c 0.951,0 1.815,0.137 2.588,0.411 0.776,0.272 1.428,0.669 1.956,1.181 0.533,0.513 0.937,1.141 1.218,1.88 0.281,0.739 0.423,1.574 0.423,2.51 0,0.977 -0.147,1.851 -0.443,2.622 -0.297,0.771 -0.727,1.424 -1.293,1.957 -0.565,0.533 -1.262,0.941 -2.086,1.225 -0.825,0.281 -1.751,0.422 -2.778,0.422 -0.974,0 -1.842,-0.13 -2.607,-0.395 -0.769,-0.264 -1.423,-0.654 -1.963,-1.167 -0.542,-0.515 -0.951,-1.141 -1.229,-1.873 -0.278,-0.733 -0.42,-1.563 -0.42,-2.493 0,-0.956 0.153,-1.822 0.458,-2.604 0.305,-0.78 0.746,-1.443 1.322,-1.991 0.576,-0.544 1.272,-0.964 2.094,-1.251 0.82,-0.29 1.74,-0.434 2.76,-0.434 l 0,0 z m -0.208,1.002 c -0.563,0 -1.072,0.117 -1.525,0.349 -0.454,0.234 -0.839,0.568 -1.161,1.006 -0.322,0.436 -0.569,0.964 -0.741,1.583 -0.173,0.619 -0.26,1.304 -0.26,2.059 0,0.82 0.081,1.553 0.24,2.203 0.159,0.649 0.399,1.199 0.71,1.655 0.315,0.456 0.699,0.799 1.15,1.035 0.45,0.229 0.962,0.349 1.533,0.349 0.768,0 1.429,-0.203 1.986,-0.611 0.558,-0.408 0.982,-0.991 1.276,-1.756 0.295,-0.766 0.441,-1.671 0.441,-2.717 0,-0.81 -0.083,-1.532 -0.25,-2.167 -0.167,-0.639 -0.407,-1.178 -0.72,-1.62 -0.317,-0.448 -0.699,-0.785 -1.149,-1.019 -0.448,-0.231 -0.962,-0.349 -1.53,-0.349 l 0,0 z m 8.257,-0.792 0.312,0.019 0.896,0.035 0.947,0.05 c 0.459,0 0.845,-0.018 1.155,-0.05 0.48,-0.035 0.802,-0.054 0.965,-0.054 0.72,0 1.349,0.109 1.886,0.326 0.536,0.219 0.948,0.533 1.235,0.945 0.291,0.409 0.434,0.891 0.434,1.436 0,0.538 -0.144,1.018 -0.434,1.433 -0.287,0.418 -0.693,0.743 -1.215,0.974 -0.522,0.231 -1.129,0.352 -1.824,0.361 l 0,0.104 c 0.605,0.016 1.013,0.04 1.229,0.069 0.214,0.03 0.507,0.112 0.878,0.246 0.5,0.185 0.896,0.507 1.191,0.971 0.296,0.459 0.447,1 0.447,1.614 0,0.673 -0.154,1.258 -0.468,1.763 -0.313,0.505 -0.761,0.895 -1.339,1.167 -0.578,0.276 -1.248,0.414 -2.006,0.414 l -0.172,0 -2.633,-0.088 -1.14,0.054 -0.344,0.018 c 0.02,-0.186 0.037,-0.315 0.051,-0.387 0,0.002 0.011,-0.343 0.037,-1.037 l 0.083,-2.305 0,-4.453 c 0,-0.623 -0.029,-1.456 -0.083,-2.496 C 75.508,9.51 75.48,9.136 75.451,8.917 l 0,0 z m 2.738,1.021 c 0,0.039 -0.002,0.074 -0.008,0.111 -0.002,0.037 -0.005,0.059 -0.005,0.065 0,0.017 -0.003,0.096 -0.008,0.24 -0.006,0.145 -0.009,0.28 -0.009,0.414 l -0.037,0.823 0,2.499 c 0.081,0.011 0.167,0.017 0.256,0.017 1.585,0 2.378,-0.762 2.378,-2.282 0,-1.27 -0.66,-1.903 -1.979,-1.903 -0.126,0 -0.265,0.005 -0.417,0.017 l -0.171,-10e-4 0,0 z m -0.067,5.119 0,2.886 c 0,0.007 0.002,0.119 0.008,0.333 0.005,0.217 0.008,0.425 0.008,0.633 0.011,0.223 0.018,0.429 0.018,0.619 0,0.01 0.003,0.033 0.01,0.074 0.005,0.038 0.008,0.073 0.008,0.102 0.241,0.055 0.459,0.085 0.655,0.085 0.424,0 0.791,-0.093 1.097,-0.284 0.309,-0.19 0.542,-0.468 0.704,-0.836 0.165,-0.366 0.244,-0.802 0.244,-1.306 0,-1.549 -0.778,-2.323 -2.342,-2.323 -0.134,0 -0.271,0.006 -0.41,0.017 l 0,0 z m 18.785,-6.154 0,1.598 c -0.835,-0.185 -1.979,-0.279 -3.43,-0.279 -0.212,0 -0.499,0.019 -0.86,0.053 -0.035,0.494 -0.052,1.021 -0.052,1.583 l 0,2.247 c 0.368,-0.022 0.751,-0.035 1.15,-0.035 2.853,0 4.277,1.068 4.277,3.202 0,0.688 -0.166,1.298 -0.499,1.822 -0.336,0.528 -0.809,0.935 -1.42,1.225 -0.611,0.289 -1.315,0.434 -2.11,0.434 -0.106,0 -0.188,-0.005 -0.245,-0.018 l -2.12,-0.07 -0.21,0 c -0.41,0 -0.91,0.047 -1.496,0.143 0.051,-0.398 0.095,-0.929 0.123,-1.59 0.033,-0.664 0.051,-1.308 0.051,-1.929 l 0,-5.032 c 0,-0.138 -0.018,-0.702 -0.053,-1.685 -0.025,-0.78 -0.065,-1.336 -0.12,-1.67 0.355,0.051 0.889,0.087 1.602,0.102 l 2.207,0.036 1.205,-0.036 c 0.768,-0.017 1.29,-0.033 1.572,-0.051 0.044,0.001 0.187,-0.014 0.428,-0.05 l 0,0 z M 92.63,19.685 c 0.335,0.082 0.583,0.122 0.741,0.122 0.569,0 1.033,-0.237 1.4,-0.71 0.365,-0.474 0.549,-1.074 0.549,-1.805 0,-0.74 -0.184,-1.302 -0.549,-1.689 -0.363,-0.386 -0.898,-0.581 -1.604,-0.581 -0.124,0 -0.325,0.019 -0.603,0.053 l 0,2.625 0.034,0.945 0.017,0.826 0.015,0.214 0,0 z M 104.145,8.921 c -0.105,0.846 -0.156,1.731 -0.156,2.653 l 0,2.448 c 0.322,-0.049 0.73,-0.074 1.225,-0.074 1.467,0 2.547,0.265 3.238,0.79 0.691,0.526 1.039,1.343 1.039,2.451 0,0.409 -0.057,0.801 -0.168,1.167 -0.111,0.366 -0.273,0.691 -0.484,0.973 -0.207,0.282 -0.463,0.51 -0.76,0.69 -0.375,0.215 -0.852,0.395 -1.42,0.533 -0.568,0.137 -1.131,0.205 -1.684,0.205 -0.043,0 -0.098,-0.002 -0.168,-0.009 -0.068,-0.005 -0.125,-0.008 -0.158,-0.008 l -1.762,-0.088 -0.26,0 c -0.367,0 -0.799,0.042 -1.293,0.123 0.014,-0.176 0.031,-0.322 0.049,-0.439 0.074,-0.69 0.107,-1.732 0.107,-3.13 l 0,-5.773 -0.039,-0.964 0,-0.265 -0.291,0.036 -1.119,0.036 c -0.262,0.008 -0.459,0.028 -0.595,0.065 -0.132,0.038 -0.313,0.114 -0.54,0.234 l 0.018,-1.668 c 0.895,0.102 1.707,0.153 2.447,0.153 0.84,-0.001 1.764,-0.047 2.774,-0.139 l 0,0 z m -0.157,6.016 0,2.861 0.037,1.038 0.018,0.545 0.035,0.242 c 0.219,0.05 0.436,0.075 0.654,0.075 0.426,0 0.795,-0.091 1.104,-0.275 0.307,-0.181 0.539,-0.45 0.701,-0.802 0.166,-0.35 0.246,-0.771 0.246,-1.259 0,-0.98 -0.236,-1.652 -0.707,-2.021 -0.326,-0.284 -0.873,-0.425 -1.639,-0.425 -0.148,0 -0.296,0.006 -0.449,0.021 l 0,0 z m 11.535,-6.09 0.105,0.318 0.547,1.512 2.363,6.65 0.59,1.599 c 0.301,0.79 0.494,1.285 0.586,1.474 0.006,0.019 0.021,0.049 0.041,0.098 0.02,0.045 0.051,0.113 0.098,0.205 l -2.918,0 -2.773,-8.796 -2.033,5.841 c -0.393,1.137 -0.635,2.122 -0.725,2.955 l -1.777,0 c 0.193,-0.463 0.406,-0.998 0.637,-1.602 0.086,-0.219 0.18,-0.458 0.281,-0.715 0.1,-0.254 0.18,-0.461 0.24,-0.613 0.057,-0.152 0.1,-0.256 0.117,-0.31 l 2.502,-6.611 c 0.24,-0.654 0.369,-1 0.379,-1.036 0.053,-0.167 0.131,-0.408 0.221,-0.72 l 0.088,-0.25 1.431,10e-4 0,0 z m 11.791,0.074 0,1.594 c -0.121,-0.036 -0.205,-0.053 -0.246,-0.053 -0.607,-0.129 -1.664,-0.212 -3.168,-0.243 l -0.205,0 c 0,0.078 -0.004,0.154 -0.008,0.228 -0.01,0.074 -0.012,0.123 -0.012,0.143 -0.035,0.825 -0.053,1.305 -0.053,1.442 l 0,5.207 c 0,0.423 0.01,0.91 0.033,1.459 0.025,0.829 0.074,1.497 0.139,2.007 l -2.877,0 c 0.035,-0.142 0.053,-0.234 0.053,-0.284 0.031,-0.219 0.061,-0.608 0.084,-1.17 0.025,-0.564 0.037,-1.09 0.037,-1.575 l 0,-5.768 -0.055,-1.583 c -0.014,-0.568 -0.033,-0.933 -0.053,-1.09 -0.006,-0.013 -0.025,-0.113 -0.066,-0.296 0.506,0.043 0.943,0.073 1.311,0.085 0.24,0.011 0.982,0.017 2.227,0.017 1.096,10e-4 2.049,-0.041 2.859,-0.12 l 0,0 z m 6.059,-0.234 c 0.037,0.088 0.055,0.153 0.055,0.193 l 0.447,1.164 0.705,1.951 1.744,4.436 1.15,2.832 0.471,1.141 0.137,0.303 -2.932,0 -1.104,-3.463 c -0.078,-0.012 -0.141,-0.019 -0.191,-0.019 0.025,0 -0.176,-0.002 -0.607,-0.008 -0.43,-0.006 -0.879,-0.008 -1.338,-0.008 l -0.238,0 c -0.305,0 -0.607,0.002 -0.906,0.008 -0.301,0.005 -0.453,0.008 -0.459,0.008 -0.068,0 -0.146,0.007 -0.238,0.019 l -1.227,3.463 -1.516,0 3.035,-7.283 c 0.371,-0.924 0.797,-2.05 1.275,-3.378 0.211,-0.6 0.359,-1.051 0.445,-1.356 l 1.291,0 0,-0.003 z m -1.236,3.187 -1.605,4.221 c 0.092,0.013 0.172,0.019 0.244,0.019 0.146,0.011 0.537,0.017 1.168,0.017 0.738,0 1.182,-0.005 1.33,-0.017 0.08,0 0.174,-0.005 0.271,-0.019 l -1.408,-4.221 0,0 z m 9.707,3.761 0,2.711 c 0,0 0.012,0.33 0.033,0.988 0.012,0.507 0.047,0.962 0.104,1.37 l -2.809,0 c 0.021,-0.212 0.029,-0.311 0.029,-0.302 0.023,-0.188 0.049,-0.786 0.092,-1.788 0.033,-1.198 0.049,-1.844 0.049,-1.937 l 0,-2.974 c 0,-0.672 -0.01,-1.381 -0.031,-2.132 -0.031,-1.008 -0.076,-1.894 -0.139,-2.652 l 0.238,0.035 c 0.711,0.044 1.152,0.068 1.313,0.068 l 0.258,0 c 0.07,-0.018 0.33,-0.036 0.777,-0.049 0.463,-0.036 0.938,-0.054 1.428,-0.054 0.674,0 1.213,0.046 1.619,0.14 0.408,0.097 0.783,0.258 1.127,0.492 0.699,0.503 1.049,1.387 1.049,2.656 0,0.961 -0.309,1.737 -0.932,2.337 -0.283,0.279 -0.641,0.507 -1.066,0.687 -0.342,0.139 -0.67,0.23 -0.992,0.273 -0.32,0.046 -0.982,0.09 -1.99,0.13 l -0.157,10e-4 0,0 z m 0.033,-5.678 c -0.023,0.868 -0.033,1.417 -0.033,1.652 l 0,3.08 c 0.395,-0.015 0.721,-0.05 0.982,-0.103 0.531,-0.109 0.916,-0.343 1.145,-0.706 0.225,-0.367 0.342,-0.924 0.342,-1.669 0,-1.539 -0.604,-2.307 -1.813,-2.307 -0.053,-10e-4 -0.26,0.016 -0.623,0.053 l 0,0 z m 16.43,-0.371 -0.453,2.113 -0.256,0 c -0.439,-1.292 -1.457,-1.938 -3.051,-1.938 -0.574,0 -1.096,0.118 -1.566,0.353 -0.471,0.233 -0.875,0.574 -1.213,1.022 -0.34,0.449 -0.596,0.981 -0.77,1.598 -0.174,0.616 -0.262,1.308 -0.262,2.076 0,0.683 0.082,1.352 0.246,2.009 0.164,0.652 0.391,1.21 0.686,1.665 0.301,0.434 0.723,0.78 1.262,1.038 0.545,0.258 1.131,0.385 1.773,0.385 0.615,0 1.211,-0.111 1.785,-0.333 0.574,-0.22 1.064,-0.524 1.475,-0.915 l 0.221,0.054 -0.398,1.46 -0.203,0.091 c -0.756,0.271 -1.361,0.455 -1.814,0.547 -0.457,0.09 -0.984,0.139 -1.584,0.139 -0.928,0 -1.775,-0.144 -2.547,-0.431 -0.768,-0.285 -1.426,-0.695 -1.977,-1.229 -0.551,-0.537 -0.975,-1.175 -1.271,-1.92 -0.295,-0.746 -0.445,-1.563 -0.445,-2.457 0,-0.92 0.154,-1.762 0.461,-2.524 0.311,-0.766 0.754,-1.423 1.336,-1.969 0.576,-0.553 1.27,-0.97 2.074,-1.262 0.807,-0.29 1.695,-0.436 2.664,-0.436 0.689,0 1.328,0.068 1.91,0.2 0.581,0.131 1.219,0.354 1.917,0.664 l 0,0 z m 10.611,-0.615 c -0.051,0.056 -0.092,0.098 -0.117,0.126 -0.023,0.032 -0.049,0.052 -0.072,0.069 -0.049,0.051 -0.154,0.161 -0.314,0.331 -0.162,0.172 -0.336,0.359 -0.531,0.564 -0.418,0.442 -0.723,0.771 -0.91,0.985 l -2.551,2.801 4.773,6.856 -3.258,0 -0.156,-0.229 -0.879,-1.516 -2.328,-4.045 -0.133,0 0.066,3.784 c 0.027,0.945 0.074,1.614 0.139,2.007 l -2.809,0 c 0.02,-0.161 0.037,-0.272 0.051,-0.334 0.02,-0.268 0.039,-0.695 0.053,-1.285 0.045,-1.11 0.066,-1.821 0.066,-2.124 l 0,-3.63 c 0,-1.461 -0.049,-2.833 -0.154,-4.115 l -0.016,-0.246 2.809,0 -0.018,0.246 -0.07,0.898 -0.049,1.02 -0.053,3.149 0.102,0 2.104,-2.515 c 0.113,-0.116 0.51,-0.613 1.191,-1.495 0.402,-0.505 0.713,-0.939 0.93,-1.302 l 2.134,0 0,0 z m 11.549,0 c 0,0.047 -0.002,0.101 -0.01,0.157 -0.004,0.062 -0.008,0.103 -0.008,0.126 -0.037,0.333 -0.066,0.879 -0.082,1.631 -0.051,0.906 -0.072,1.538 -0.072,1.903 l 0,4.589 c 0,0.003 0.021,0.548 0.072,1.637 0.043,0.833 0.063,1.269 0.064,1.319 0.004,0.032 0.014,0.091 0.02,0.176 0.006,0.086 0.012,0.15 0.014,0.194 l -2.785,0 c 0.012,-0.081 0.016,-0.17 0.016,-0.261 0.039,-0.541 0.059,-0.957 0.064,-1.252 0.025,-0.446 0.035,-0.926 0.035,-1.442 l 0,-5.21 0,-1.653 0,-0.33 -3.135,7.07 -0.625,1.407 c -0.324,0.726 -0.525,1.196 -0.602,1.41 -0.014,0.023 -0.047,0.111 -0.107,0.261 l -3.273,0 c 0.043,-0.143 0.066,-0.24 0.066,-0.303 0.02,-0.044 0.037,-0.436 0.053,-1.176 l 0.053,-1.512 0,-4.714 c 0,-0.68 -0.012,-1.355 -0.033,-2.023 -0.045,-0.947 -0.09,-1.615 -0.139,-2.005 l 2.813,0 c -0.033,0.225 -0.059,0.359 -0.072,0.405 0,-0.199 -0.01,0.334 -0.033,1.602 l -0.037,1.671 0,5.119 0.053,1.055 -0.018,0.298 2.639,-5.961 0.914,-2.04 0.775,-1.885 0.121,-0.26 3.26,0 0,-0.003 z M 58.166,28.516 c -0.089,0.121 -0.152,0.219 -0.189,0.305 -0.002,0.002 -0.032,0.074 -0.089,0.215 -0.055,0.137 -0.216,0.529 -0.481,1.168 l -0.398,0.967 -2.155,5.512 c -0.151,0.385 -0.33,0.941 -0.532,1.662 -0.205,0.721 -0.366,1.354 -0.481,1.906 l -1.743,0 1.572,-3.467 -1.758,0.461 -0.106,-0.318 -0.397,-1.039 -1.916,-4.888 -0.48,-1.182 -0.45,-1.041 -0.135,-0.262 2.896,0 2.582,7.619 1.881,-5.336 c 0.095,-0.266 0.188,-0.625 0.276,-1.072 0.089,-0.445 0.148,-0.85 0.172,-1.211 l 1.931,0 0,10e-4 z m 11.388,0 c -0.021,0.234 -0.034,0.369 -0.034,0.406 -0.03,0.316 -0.065,1.043 -0.105,2.18 -0.022,0.553 -0.035,1.109 -0.035,1.672 l 0,3.361 c 0,0.443 0.012,0.924 0.035,1.439 0.031,1.008 0.06,1.754 0.09,2.24 0.007,0.066 0.013,0.137 0.019,0.203 0.005,0.064 0.014,0.145 0.027,0.23 l -2.806,0 c 0.035,-0.139 0.05,-0.244 0.05,-0.316 l 0.032,-0.914 0.052,-1.037 0,-3.414 -0.254,-0.018 c -1.567,-0.025 -2.388,-0.037 -2.465,-0.037 -0.463,0 -1.154,0.014 -2.068,0.037 l -0.278,0.018 0,3.375 c 0,0.342 0.011,0.676 0.034,1.004 0.026,0.609 0.055,1.045 0.086,1.303 l -2.792,0 0.017,-0.369 0.104,-2.285 0.05,-1.5 0,-3.271 c 0,0.014 -0.01,-0.449 -0.033,-1.387 -0.039,-1.008 -0.075,-1.85 -0.105,-2.516 -0.006,-0.035 -0.012,-0.1 -0.018,-0.193 -0.01,-0.098 -0.012,-0.17 -0.014,-0.213 l 2.792,0 -0.014,0.244 c -0.072,0.752 -0.106,1.383 -0.106,1.883 l 0,2.635 c 0.104,0.016 0.19,0.02 0.263,0.02 0.48,0.023 1.148,0.035 1.997,0.035 l 0.323,0 c 0.968,0 1.692,-0.012 2.176,-0.035 0.076,0 0.181,-0.004 0.307,-0.02 l 0,-2.776 c 0,-0.148 -0.017,-0.439 -0.052,-0.879 -0.023,-0.512 -0.05,-0.883 -0.083,-1.107 l 2.809,0 0,0.002 z m 12.964,0 c 0,0.049 -0.002,0.102 -0.007,0.158 -0.006,0.063 -0.011,0.104 -0.011,0.127 -0.037,0.334 -0.064,0.879 -0.083,1.631 -0.048,0.906 -0.071,1.539 -0.071,1.902 l 0,4.592 c 0,0.004 0.023,0.549 0.071,1.635 0.043,0.834 0.064,1.27 0.066,1.32 0.007,0.031 0.016,0.092 0.021,0.178 0.006,0.084 0.012,0.148 0.014,0.191 l -2.788,0 c 0.012,-0.08 0.017,-0.17 0.017,-0.262 0.037,-0.537 0.058,-0.955 0.066,-1.248 0.024,-0.447 0.034,-0.928 0.034,-1.443 l 0,-5.211 0,-1.654 0,-0.328 -3.137,7.068 -0.624,1.408 c -0.324,0.727 -0.524,1.193 -0.601,1.408 -0.016,0.023 -0.05,0.113 -0.105,0.262 l -3.274,0 c 0.043,-0.141 0.066,-0.24 0.066,-0.303 0.02,-0.045 0.038,-0.436 0.055,-1.176 l 0.052,-1.514 0,-4.715 c 0,-0.68 -0.011,-1.352 -0.034,-2.02 -0.043,-0.947 -0.09,-1.617 -0.139,-2.008 l 2.812,0 c -0.034,0.229 -0.056,0.361 -0.071,0.406 0,-0.199 -0.012,0.334 -0.035,1.602 l -0.033,1.668 0,5.119 0.051,1.055 -0.018,0.299 2.641,-5.959 0.915,-2.043 0.775,-1.885 0.122,-0.262 3.253,0 0,0.002 z m 2.568,-0.053 0.311,0.018 0.896,0.035 0.948,0.051 c 0.46,0 0.846,-0.016 1.155,-0.051 0.479,-0.035 0.8,-0.053 0.965,-0.053 0.717,0 1.347,0.109 1.885,0.326 0.537,0.221 0.947,0.535 1.234,0.943 0.29,0.414 0.434,0.895 0.434,1.439 0,0.537 -0.144,1.018 -0.434,1.432 -0.287,0.42 -0.691,0.742 -1.215,0.977 -0.52,0.229 -1.129,0.352 -1.825,0.359 l 0,0.105 c 0.606,0.014 1.014,0.037 1.229,0.068 0.216,0.029 0.51,0.111 0.879,0.244 0.5,0.188 0.898,0.508 1.193,0.971 0.295,0.461 0.444,1 0.444,1.617 0,0.672 -0.155,1.258 -0.468,1.762 -0.313,0.502 -0.762,0.893 -1.339,1.166 -0.577,0.273 -1.247,0.412 -2.004,0.412 l -0.174,0 -2.634,-0.088 -1.136,0.054 -0.346,0.02 c 0.022,-0.186 0.037,-0.314 0.053,-0.387 0,0.002 0.01,-0.344 0.035,-1.037 l 0.085,-2.307 0,-4.453 c 0,-0.621 -0.03,-1.455 -0.085,-2.496 -0.028,-0.533 -0.056,-0.91 -0.086,-1.127 l 0,0 z m 2.738,1.021 c 0,0.039 -0.003,0.072 -0.008,0.111 -0.003,0.037 -0.006,0.059 -0.006,0.064 0,0.018 -0.004,0.096 -0.01,0.242 -0.005,0.143 -0.008,0.279 -0.008,0.41 l -0.033,0.824 0,2.5 c 0.079,0.012 0.165,0.016 0.255,0.016 1.583,0 2.377,-0.762 2.377,-2.281 0,-1.268 -0.659,-1.906 -1.978,-1.906 -0.126,0 -0.265,0.008 -0.418,0.02 l -0.171,0 0,0 z m -0.065,5.118 0,2.885 c 0,0.008 0.001,0.121 0.008,0.334 0.005,0.217 0.008,0.426 0.008,0.633 0.012,0.225 0.017,0.43 0.017,0.619 0,0.01 0.002,0.031 0.008,0.074 0.005,0.037 0.01,0.072 0.01,0.102 0.241,0.057 0.459,0.084 0.654,0.084 0.426,0 0.79,-0.094 1.096,-0.281 0.308,-0.191 0.543,-0.469 0.706,-0.838 0.162,-0.365 0.244,-0.801 0.244,-1.307 0,-1.547 -0.778,-2.322 -2.342,-2.322 -0.134,10e-4 -0.272,0.007 -0.409,0.017 l 0,0 z m 13.975,-6.122 0,1.479 -0.326,-0.02 -1.899,-0.102 -1.413,-0.057 -0.172,0 0,0.178 -0.018,0.723 -0.018,0.699 0,2.055 c 0.084,0.012 0.155,0.018 0.225,0.018 0.289,0 0.828,-0.018 1.619,-0.053 l 1.654,-0.074 0.293,-0.018 0,1.482 -0.311,0 -1.773,-0.102 -1.552,-0.037 -0.155,0 0,2.729 c 0,0.361 0.023,0.906 0.07,1.633 l 0.21,-0.013 1.121,-0.053 1.15,-0.092 1.002,-0.084 0.309,-0.033 0,1.531 -0.242,-0.02 -1.686,-0.02 -1.898,-0.051 c 0.002,0 -0.4,0.014 -1.207,0.039 -0.31,0.01 -0.729,0.027 -1.261,0.047 l -0.237,0 c 0.113,-0.98 0.174,-2.266 0.174,-3.854 l 0,-4.188 -0.066,-2.162 -0.09,-1.305 -0.018,-0.277 c 1.052,0.057 2.074,0.084 3.068,0.084 0.979,0 2.027,-0.023 3.156,-0.066 l 0.291,-0.016 0,0 z m 4.692,6.7 0,2.715 c 0,0 0.01,0.326 0.033,0.986 0.012,0.506 0.047,0.961 0.105,1.369 l -2.811,0 c 0.02,-0.211 0.031,-0.313 0.031,-0.303 0.02,-0.189 0.047,-0.787 0.088,-1.787 0.035,-1.201 0.051,-1.846 0.051,-1.939 l 0,-2.973 c 0,-0.672 -0.012,-1.381 -0.031,-2.131 -0.029,-1.008 -0.074,-1.896 -0.139,-2.654 l 0.238,0.037 c 0.713,0.043 1.152,0.066 1.313,0.066 l 0.256,0 c 0.072,-0.016 0.332,-0.035 0.779,-0.051 0.465,-0.035 0.938,-0.053 1.428,-0.053 0.676,0 1.215,0.049 1.623,0.143 0.406,0.096 0.781,0.256 1.123,0.49 0.699,0.502 1.051,1.387 1.051,2.656 0,0.961 -0.311,1.74 -0.934,2.338 -0.283,0.279 -0.643,0.508 -1.068,0.689 -0.342,0.137 -0.668,0.229 -0.992,0.271 -0.318,0.043 -0.98,0.086 -1.988,0.129 l -0.156,0 0,0.002 z m 0.033,-5.68 c -0.023,0.869 -0.033,1.42 -0.033,1.656 l 0,3.076 c 0.393,-0.016 0.721,-0.049 0.982,-0.102 0.529,-0.109 0.914,-0.344 1.143,-0.707 0.227,-0.365 0.344,-0.924 0.344,-1.668 0,-1.537 -0.605,-2.307 -1.813,-2.307 -0.053,-0.001 -0.262,0.017 -0.623,0.052 l 0,0 z m 16.426,-0.367 -0.449,2.111 -0.256,0 c -0.438,-1.291 -1.457,-1.936 -3.051,-1.936 -0.574,0 -1.094,0.119 -1.564,0.352 -0.473,0.234 -0.877,0.574 -1.217,1.023 -0.34,0.447 -0.594,0.982 -0.768,1.598 -0.174,0.616 -0.26,1.307 -0.26,2.074 0,0.686 0.078,1.354 0.244,2.012 0.162,0.652 0.389,1.209 0.686,1.664 0.301,0.434 0.721,0.779 1.262,1.037 0.543,0.258 1.133,0.387 1.771,0.387 0.617,0 1.211,-0.113 1.785,-0.334 0.574,-0.221 1.064,-0.525 1.475,-0.914 l 0.223,0.053 -0.4,1.461 -0.203,0.088 c -0.754,0.273 -1.361,0.455 -1.816,0.549 -0.455,0.09 -0.98,0.139 -1.582,0.139 -0.93,0 -1.775,-0.145 -2.547,-0.432 -0.766,-0.285 -1.426,-0.693 -1.977,-1.229 -0.555,-0.537 -0.975,-1.178 -1.271,-1.918 -0.295,-0.746 -0.445,-1.564 -0.445,-2.457 0,-0.922 0.156,-1.764 0.465,-2.525 0.309,-0.766 0.75,-1.424 1.332,-1.971 0.576,-0.553 1.273,-0.971 2.074,-1.262 0.809,-0.289 1.695,-0.436 2.664,-0.436 0.691,0 1.326,0.068 1.912,0.201 0.583,0.13 1.219,0.354 1.913,0.665 l 0,0 z m 11.943,-0.617 c 0,0.049 -0.002,0.102 -0.008,0.158 -0.006,0.063 -0.01,0.104 -0.01,0.127 -0.037,0.334 -0.064,0.879 -0.084,1.631 -0.047,0.906 -0.07,1.539 -0.07,1.902 l 0,4.592 c 0,0.004 0.023,0.549 0.07,1.635 0.043,0.834 0.064,1.27 0.066,1.32 0.008,0.031 0.016,0.092 0.023,0.178 0.004,0.084 0.012,0.148 0.014,0.191 l -2.787,0 c 0.012,-0.08 0.018,-0.17 0.018,-0.262 0.039,-0.537 0.057,-0.955 0.064,-1.248 0.025,-0.447 0.037,-0.928 0.037,-1.443 l 0,-5.211 0,-1.654 0,-0.328 -3.139,7.068 -0.625,1.408 c -0.324,0.727 -0.523,1.193 -0.6,1.408 -0.014,0.023 -0.051,0.113 -0.105,0.262 l -3.277,0 c 0.045,-0.141 0.068,-0.24 0.068,-0.303 0.02,-0.045 0.035,-0.436 0.053,-1.176 l 0.051,-1.514 0,-4.715 c 0,-0.68 -0.012,-1.352 -0.033,-2.02 -0.043,-0.947 -0.09,-1.617 -0.139,-2.008 l 2.813,0 c -0.035,0.229 -0.059,0.361 -0.072,0.406 0,-0.199 -0.012,0.334 -0.035,1.602 l -0.033,1.668 0,5.119 0.051,1.055 -0.018,0.299 2.641,-5.959 0.914,-2.043 0.775,-1.885 0.121,-0.262 3.256,0 0,0.002 z m 10.637,-0.053 0,1.566 -0.225,-0.037 c -1.037,-0.117 -1.869,-0.174 -2.5,-0.174 -0.15,0 -0.305,0.006 -0.465,0.02 l 0,0.225 c -0.035,0.602 -0.053,1.459 -0.053,2.568 l 0,3.289 c 0,-0.078 0.014,0.609 0.035,2.064 0.023,0.926 0.07,1.682 0.137,2.268 l -2.859,0 c 0.049,-0.416 0.092,-1.096 0.119,-2.041 l 0.051,-2.25 0,-3.135 -0.035,-1.479 -0.016,-1.244 0,-0.263 c -0.092,-0.016 -0.172,-0.021 -0.242,-0.021 l -0.205,0 c -0.627,0 -1.459,0.059 -2.5,0.178 l -0.24,0.033 0,-1.566 0.295,0.018 1.1,0.051 c 0.766,0.047 1.816,0.068 3.154,0.068 0.727,0 1.65,-0.008 2.777,-0.033 0.789,-0.039 1.348,-0.068 1.672,-0.105 l 0,0 z m 8.135,0.017 0,1.479 -0.326,-0.02 -1.896,-0.102 -1.416,-0.057 -0.172,0 0,0.178 -0.018,0.723 -0.016,0.699 0,2.055 c 0.08,0.012 0.154,0.018 0.223,0.018 0.291,0 0.826,-0.018 1.621,-0.053 l 1.652,-0.074 0.293,-0.018 0,1.482 -0.309,0 -1.777,-0.102 -1.551,-0.037 -0.154,0 0,2.729 c 0,0.361 0.023,0.906 0.068,1.633 l 0.209,-0.013 1.121,-0.053 1.152,-0.092 1.004,-0.084 0.307,-0.033 0,1.531 -0.242,-0.02 -1.686,-0.02 -1.898,-0.051 c 0.002,0 -0.402,0.014 -1.207,0.039 -0.311,0.01 -0.73,0.027 -1.262,0.047 l -0.238,0 c 0.115,-0.98 0.172,-2.266 0.172,-3.854 l 0,-4.188 -0.066,-2.162 -0.088,-1.305 -0.018,-0.279 c 1.051,0.057 2.074,0.086 3.066,0.086 0.979,0 2.029,-0.023 3.158,-0.066 l 0.294,-0.016 0,0 z m 10.084,-0.017 0,1.566 -0.223,-0.037 c -1.033,-0.117 -1.867,-0.174 -2.5,-0.174 -0.148,0 -0.305,0.006 -0.465,0.02 l 0,0.225 c -0.035,0.602 -0.049,1.459 -0.049,2.568 l 0,3.289 c 0,-0.078 0.008,0.609 0.029,2.064 0.027,0.926 0.072,1.682 0.139,2.268 l -2.861,0 c 0.053,-0.416 0.096,-1.096 0.121,-2.041 l 0.051,-2.25 0,-3.135 -0.031,-1.479 -0.02,-1.244 0,-0.263 c -0.092,-0.016 -0.17,-0.021 -0.244,-0.021 l -0.205,0 c -0.623,0 -1.457,0.059 -2.498,0.178 l -0.242,0.033 0,-1.566 0.297,0.018 1.102,0.051 c 0.762,0.047 1.816,0.068 3.154,0.068 0.723,0 1.648,-0.008 2.775,-0.033 0.791,-0.039 1.349,-0.068 1.67,-0.105 l 0,0 z"
     id="path5"
     inkscape:connector-curvature="0" /></svg>