<?xml version="1.0" encoding="iso-8859-1"?>
<!-- Generator: Adobe Illustrator 14.0.0, SVG Export Plug-In . SVG Version: 6.00 Build 43363)  -->
<!DOCTYPE svg PUBLIC "-//W3C//DTD SVG 1.1//EN" "http://www.w3.org/Graphics/SVG/1.1/DTD/svg11.dtd">
<svg version="1.1" id="Layer_1" xmlns="http://www.w3.org/2000/svg" xmlns:xlink="http://www.w3.org/1999/xlink" x="0px" y="0px"
	 width="195px" height="50.164px" viewBox="0 0 195 50.164" style="enable-background:new 0 0 195 50.164;" xml:space="preserve">
<path style="fill:#FFFFFF;" d="M38.855,9.537h-1.787v0.085v0.111v0.123v0.136v0.134v0.123v0.111v0.085l-0.024,0.848l-0.06,0.834
	l-0.108,0.822l-0.142,0.82l-0.18,0.799l-0.214,0.774l-0.263,0.773l-0.286,0.749l-0.332,0.738L35.1,18.315l-0.382,0.688l-0.429,0.673
	l-0.453,0.639l-0.477,0.625l-0.513,0.604l-0.537,0.577l-0.56,0.552l-0.583,0.515l-0.608,0.491l-0.645,0.456l-0.644,0.441
	l-0.68,0.394l-0.704,0.368l-0.702,0.333l-0.741,0.295l-0.75,0.258l-0.764,0.221l-0.774,0.193l-0.788,0.137l-0.811,0.111
	l-0.812,0.063l-0.822,0.023l-0.822-0.023l-0.81-0.063l-0.811-0.111l-0.788-0.137l-0.775-0.193l-0.762-0.221l-0.752-0.258
	l-0.727-0.295l-0.717-0.333l-0.692-0.368l-0.678-0.394l-0.655-0.441L11.3,23.679l-0.608-0.491l-0.583-0.515l-0.561-0.552
	l-0.537-0.577L8.499,20.94l-0.477-0.625L7.57,19.676l-0.431-0.673l-0.38-0.688L6.39,17.603l-0.322-0.738L5.78,16.117l-0.262-0.773
	l-0.215-0.774L5.125,13.77l-0.143-0.82l-0.108-0.822l-0.062-0.834l-0.023-0.848V10.36v-0.111v-0.123V9.992V9.856V9.733V9.622V9.537
	H3v20.637l0.024,0.934l0.071,0.934l0.107,0.91l0.155,0.895L3.56,34.73L3.798,35.6l0.285,0.85l0.322,0.822l0.359,0.809l0.393,0.789
	l0.429,0.758l0.465,0.752l0.5,0.711l0.537,0.686l0.561,0.666l0.597,0.625l0.62,0.613l0.656,0.566l0.667,0.551l0.704,0.504
	l0.728,0.479l0.75,0.443l0.776,0.391l0.798,0.367l0.81,0.334l0.836,0.279l0.846,0.246l0.871,0.211l0.882,0.16l0.895,0.107
	l0.919,0.074l0.918,0.025l0.918-0.025l0.918-0.074l0.894-0.107l0.883-0.16l0.871-0.211l0.847-0.246l0.834-0.279l0.823-0.334
	l0.787-0.367l0.774-0.391l0.751-0.443l0.726-0.479l0.705-0.504l0.679-0.551l0.644-0.566l0.632-0.613l0.583-0.625l0.574-0.666
	l0.524-0.686l0.5-0.711l0.467-0.752l0.44-0.758l0.394-0.789l0.358-0.809l0.322-0.822l0.275-0.85l0.251-0.869l0.191-0.885
	l0.167-0.895l0.107-0.91l0.072-0.934l0.023-0.934L38.855,9.537L38.855,9.537z M20.921,23.94l0.609-0.012l0.597-0.05l0.583-0.075
	l0.584-0.11l0.573-0.136l0.549-0.159l0.548-0.183l0.535-0.221l0.513-0.235l0.514-0.269l0.488-0.281l0.477-0.319l0.464-0.332
	l0.441-0.357l0.429-0.381l0.405-0.392l0.381-0.417l0.372-0.431l0.356-0.453l0.323-0.479l0.31-0.48l0.275-0.503l0.263-0.517
	l0.237-0.527l0.202-0.54l0.192-0.563l0.154-0.564l0.13-0.578l0.107-0.588l0.072-0.603l0.047-0.601l0.012-0.614l-0.012-0.612
	l-0.047-0.603l-0.072-0.602l-0.107-0.589l-0.13-0.578l-0.154-0.563L31.951,7.86l-0.202-0.541l-0.238-0.53l-0.264-0.516L30.972,5.77
	l-0.31-0.479L30.34,4.811l-0.357-0.454l-0.371-0.43L29.231,3.51l-0.405-0.394l-0.429-0.381l-0.441-0.356L27.49,2.049l-0.477-0.32
	l-0.489-0.284l-0.513-0.269l-0.513-0.233l-0.535-0.22L24.415,0.54l-0.549-0.16l-0.572-0.135l-0.584-0.11l-0.583-0.074l-0.597-0.049
	L20.919,0l-0.607,0.012l-0.597,0.049l-0.584,0.074l-0.583,0.11L17.986,0.38l-0.558,0.16L16.88,0.724l-0.538,0.222l-0.511,0.232
	l-0.513,0.27l-0.49,0.283l-0.477,0.32l-0.454,0.331l-0.454,0.356L13.027,3.12l-0.405,0.393l-0.394,0.417l-0.37,0.431l-0.346,0.454
	l-0.322,0.479L10.88,5.772l-0.286,0.503l-0.248,0.513l-0.239,0.528L9.903,7.857l-0.19,0.564L9.559,8.985L9.428,9.563l-0.106,0.588
	L9.25,10.752l-0.049,0.604l-0.011,0.613l0.011,0.613l0.049,0.602l0.072,0.603l0.106,0.588l0.131,0.577l0.155,0.565l0.19,0.563
	l0.204,0.541l0.239,0.527l0.25,0.517l0.286,0.502l0.311,0.48l0.322,0.479l0.346,0.454l0.37,0.432l0.394,0.416l0.404,0.392
	l0.418,0.381l0.453,0.356l0.454,0.332l0.477,0.319l0.49,0.282l0.513,0.269l0.511,0.234l0.538,0.221l0.548,0.184l0.561,0.158
	l0.561,0.136l0.583,0.11l0.584,0.075l0.597,0.049L20.921,23.94L20.921,23.94z"/>
<path style="fill:#FFFFFF;" d="M61.901,8.971C61.88,9.205,61.87,9.339,61.87,9.375c-0.032,0.316-0.065,1.045-0.106,2.181
	c-0.023,0.552-0.033,1.109-0.033,1.672v3.362c0,0.441,0.01,0.924,0.033,1.436c0.033,1.008,0.06,1.756,0.09,2.24
	c0.008,0.071,0.015,0.137,0.021,0.206c0.006,0.063,0.014,0.142,0.027,0.231h-2.805c0.034-0.143,0.051-0.247,0.051-0.318l0.031-0.916
	l0.051-1.037V15.02l-0.254-0.017c-1.564-0.024-2.388-0.035-2.466-0.035c-0.461,0-1.15,0.011-2.065,0.035l-0.278,0.017v3.374
	c0,0.342,0.012,0.678,0.033,1.006c0.026,0.611,0.056,1.044,0.087,1.303h-2.792l0.016-0.37l0.103-2.284l0.051-1.501v-3.271
	c0,0.015-0.01-0.449-0.034-1.386c-0.039-1.01-0.075-1.85-0.105-2.517c-0.006-0.032-0.013-0.097-0.019-0.194
	c-0.007-0.096-0.011-0.165-0.013-0.21h2.792l-0.015,0.246c-0.073,0.75-0.107,1.379-0.107,1.883v2.636
	c0.104,0.011,0.189,0.017,0.263,0.017c0.481,0.023,1.148,0.036,1.995,0.036h0.326c0.967,0,1.692-0.013,2.174-0.036
	c0.078,0,0.182-0.006,0.307-0.017v-2.777c0-0.15-0.017-0.443-0.051-0.88c-0.022-0.512-0.05-0.883-0.082-1.107H61.901L61.901,8.971z
	 M70.402,8.707c0.951,0,1.815,0.137,2.588,0.411c0.776,0.272,1.428,0.669,1.956,1.181c0.533,0.513,0.937,1.141,1.218,1.88
	s0.423,1.574,0.423,2.51c0,0.977-0.147,1.851-0.443,2.622c-0.297,0.771-0.727,1.424-1.293,1.957
	c-0.565,0.533-1.262,0.941-2.086,1.225c-0.825,0.281-1.751,0.422-2.778,0.422c-0.974,0-1.842-0.13-2.607-0.395
	c-0.769-0.264-1.423-0.654-1.963-1.167c-0.542-0.515-0.951-1.141-1.229-1.873c-0.278-0.733-0.42-1.563-0.42-2.493
	c0-0.956,0.153-1.822,0.458-2.604c0.305-0.78,0.746-1.443,1.322-1.991c0.576-0.544,1.272-0.964,2.094-1.251
	C68.462,8.851,69.382,8.707,70.402,8.707L70.402,8.707z M70.194,9.709c-0.563,0-1.072,0.117-1.525,0.349
	c-0.454,0.234-0.839,0.568-1.161,1.006c-0.322,0.436-0.569,0.964-0.741,1.583c-0.173,0.619-0.26,1.304-0.26,2.059
	c0,0.82,0.081,1.553,0.24,2.203c0.159,0.649,0.399,1.199,0.71,1.655c0.315,0.456,0.699,0.799,1.15,1.035
	c0.45,0.229,0.962,0.349,1.533,0.349c0.768,0,1.429-0.203,1.986-0.611c0.558-0.408,0.982-0.991,1.276-1.756
	c0.295-0.766,0.441-1.671,0.441-2.717c0-0.81-0.083-1.532-0.25-2.167c-0.167-0.639-0.407-1.178-0.72-1.62
	c-0.317-0.448-0.699-0.785-1.149-1.019C71.276,9.827,70.762,9.709,70.194,9.709L70.194,9.709z M78.451,8.917l0.312,0.019
	l0.896,0.035l0.947,0.05c0.459,0,0.845-0.018,1.155-0.05c0.48-0.035,0.802-0.054,0.965-0.054c0.72,0,1.349,0.109,1.886,0.326
	c0.536,0.219,0.948,0.533,1.235,0.945c0.291,0.409,0.434,0.891,0.434,1.436c0,0.538-0.144,1.018-0.434,1.433
	c-0.287,0.418-0.693,0.743-1.215,0.974s-1.129,0.352-1.824,0.361v0.104c0.605,0.016,1.013,0.04,1.229,0.069
	c0.214,0.03,0.507,0.112,0.878,0.246c0.5,0.185,0.896,0.507,1.191,0.971c0.296,0.459,0.447,1,0.447,1.614
	c0,0.673-0.154,1.258-0.468,1.763c-0.313,0.505-0.761,0.895-1.339,1.167c-0.578,0.276-1.248,0.414-2.006,0.414h-0.172l-2.633-0.088
	l-1.14,0.054l-0.344,0.018c0.02-0.186,0.037-0.315,0.051-0.387c0,0.002,0.011-0.343,0.037-1.037l0.083-2.305v-4.453
	c0-0.623-0.029-1.456-0.083-2.496C78.508,9.51,78.48,9.136,78.451,8.917L78.451,8.917z M81.189,9.938
	c0,0.039-0.002,0.074-0.008,0.111c-0.002,0.037-0.005,0.059-0.005,0.065c0,0.017-0.003,0.096-0.008,0.24
	c-0.006,0.145-0.009,0.28-0.009,0.414l-0.037,0.823v2.499c0.081,0.011,0.167,0.017,0.256,0.017c1.585,0,2.378-0.762,2.378-2.282
	c0-1.27-0.66-1.903-1.979-1.903c-0.126,0-0.265,0.005-0.417,0.017L81.189,9.938L81.189,9.938z M81.122,15.057v2.886
	c0,0.007,0.002,0.119,0.008,0.333c0.005,0.217,0.008,0.425,0.008,0.633c0.011,0.223,0.018,0.429,0.018,0.619
	c0,0.01,0.003,0.033,0.01,0.074c0.005,0.038,0.008,0.073,0.008,0.102c0.241,0.055,0.459,0.085,0.655,0.085
	c0.424,0,0.791-0.093,1.097-0.284c0.309-0.19,0.542-0.468,0.704-0.836c0.165-0.366,0.244-0.802,0.244-1.306
	c0-1.549-0.778-2.323-2.342-2.323C81.398,15.04,81.261,15.046,81.122,15.057L81.122,15.057z M99.907,8.903v1.598
	c-0.835-0.185-1.979-0.279-3.43-0.279c-0.212,0-0.499,0.019-0.86,0.053c-0.035,0.494-0.052,1.021-0.052,1.583v2.247
	c0.368-0.022,0.751-0.035,1.15-0.035c2.853,0,4.277,1.068,4.277,3.202c0,0.688-0.166,1.298-0.499,1.822
	c-0.336,0.528-0.809,0.935-1.42,1.225c-0.611,0.289-1.315,0.434-2.11,0.434c-0.106,0-0.188-0.005-0.245-0.018l-2.12-0.07h-0.21
	c-0.41,0-0.91,0.047-1.496,0.143c0.051-0.398,0.095-0.929,0.123-1.59c0.033-0.664,0.051-1.308,0.051-1.929v-5.032
	c0-0.138-0.018-0.702-0.053-1.685c-0.025-0.78-0.065-1.336-0.12-1.67c0.355,0.051,0.889,0.087,1.602,0.102l2.207,0.036l1.205-0.036
	c0.768-0.017,1.29-0.033,1.572-0.051C99.523,8.954,99.666,8.939,99.907,8.903L99.907,8.903z M95.63,19.685
	c0.335,0.082,0.583,0.122,0.741,0.122c0.569,0,1.033-0.237,1.4-0.71c0.365-0.474,0.549-1.074,0.549-1.805
	c0-0.74-0.184-1.302-0.549-1.689c-0.363-0.386-0.898-0.581-1.604-0.581c-0.124,0-0.325,0.019-0.603,0.053V17.7l0.034,0.945
	l0.017,0.826L95.63,19.685L95.63,19.685z M107.145,8.921c-0.105,0.846-0.156,1.731-0.156,2.653v2.448
	c0.322-0.049,0.73-0.074,1.225-0.074c1.467,0,2.547,0.265,3.238,0.79c0.691,0.526,1.039,1.343,1.039,2.451
	c0,0.409-0.057,0.801-0.168,1.167c-0.111,0.366-0.273,0.691-0.484,0.973c-0.207,0.282-0.463,0.51-0.76,0.69
	c-0.375,0.215-0.852,0.395-1.42,0.533c-0.568,0.137-1.131,0.205-1.684,0.205c-0.043,0-0.098-0.002-0.168-0.009
	c-0.068-0.005-0.125-0.008-0.158-0.008l-1.762-0.088h-0.26c-0.367,0-0.799,0.042-1.293,0.123c0.014-0.176,0.031-0.322,0.049-0.439
	c0.074-0.69,0.107-1.732,0.107-3.13v-5.773l-0.039-0.964v-0.265l-0.291,0.036l-1.119,0.036c-0.262,0.008-0.459,0.028-0.595,0.065
	c-0.132,0.038-0.313,0.114-0.54,0.234l0.018-1.668c0.895,0.102,1.707,0.153,2.447,0.153C105.211,9.059,106.135,9.013,107.145,8.921
	L107.145,8.921z M106.988,14.937v2.861l0.037,1.038l0.018,0.545l0.035,0.242c0.219,0.05,0.436,0.075,0.654,0.075
	c0.426,0,0.795-0.091,1.104-0.275c0.307-0.181,0.539-0.45,0.701-0.802c0.166-0.35,0.246-0.771,0.246-1.259
	c0-0.98-0.236-1.652-0.707-2.021c-0.326-0.284-0.873-0.425-1.639-0.425C107.289,14.916,107.141,14.922,106.988,14.937
	L106.988,14.937z M118.523,8.847l0.105,0.318l0.547,1.512l2.363,6.65l0.59,1.599c0.301,0.79,0.494,1.285,0.586,1.474
	c0.006,0.019,0.021,0.049,0.041,0.098c0.02,0.045,0.051,0.113,0.098,0.205h-2.918l-2.773-8.796l-2.033,5.841
	c-0.393,1.137-0.635,2.122-0.725,2.955h-1.777c0.193-0.463,0.406-0.998,0.637-1.602c0.086-0.219,0.18-0.458,0.281-0.715
	c0.1-0.254,0.18-0.461,0.24-0.613c0.057-0.152,0.1-0.256,0.117-0.31l2.502-6.611c0.24-0.654,0.369-1,0.379-1.036
	c0.053-0.167,0.131-0.408,0.221-0.72l0.088-0.25L118.523,8.847L118.523,8.847z M130.314,8.921v1.594
	c-0.121-0.036-0.205-0.053-0.246-0.053c-0.607-0.129-1.664-0.212-3.168-0.243h-0.205c0,0.078-0.004,0.154-0.008,0.228
	c-0.01,0.074-0.012,0.123-0.012,0.143c-0.035,0.825-0.053,1.305-0.053,1.442v5.207c0,0.423,0.01,0.91,0.033,1.459
	c0.025,0.829,0.074,1.497,0.139,2.007h-2.877c0.035-0.142,0.053-0.234,0.053-0.284c0.031-0.219,0.061-0.608,0.084-1.17
	c0.025-0.564,0.037-1.09,0.037-1.575v-5.768l-0.055-1.583c-0.014-0.568-0.033-0.933-0.053-1.09
	c-0.006-0.013-0.025-0.113-0.066-0.296c0.506,0.043,0.943,0.073,1.311,0.085c0.24,0.011,0.982,0.017,2.227,0.017
	C128.551,9.042,129.504,9,130.314,8.921L130.314,8.921z M136.373,8.687c0.037,0.088,0.055,0.153,0.055,0.193l0.447,1.164
	l0.705,1.951l1.744,4.436l1.15,2.832l0.471,1.141l0.137,0.303h-2.932l-1.104-3.463c-0.078-0.012-0.141-0.019-0.191-0.019
	c0.025,0-0.176-0.002-0.607-0.008c-0.43-0.006-0.879-0.008-1.338-0.008h-0.238c-0.305,0-0.607,0.002-0.906,0.008
	c-0.301,0.005-0.453,0.008-0.459,0.008c-0.068,0-0.146,0.007-0.238,0.019l-1.227,3.463h-1.516l3.035-7.283
	c0.371-0.924,0.797-2.05,1.275-3.378c0.211-0.6,0.359-1.051,0.445-1.356h1.291V8.687z M135.137,11.874l-1.605,4.221
	c0.092,0.013,0.172,0.019,0.244,0.019c0.146,0.011,0.537,0.017,1.168,0.017c0.738,0,1.182-0.005,1.33-0.017
	c0.08,0,0.174-0.005,0.271-0.019L135.137,11.874L135.137,11.874z M144.844,15.635v2.711c0,0,0.012,0.33,0.033,0.988
	c0.012,0.507,0.047,0.962,0.104,1.37h-2.809c0.021-0.212,0.029-0.311,0.029-0.302c0.023-0.188,0.049-0.786,0.092-1.788
	c0.033-1.198,0.049-1.844,0.049-1.937v-2.974c0-0.672-0.01-1.381-0.031-2.132c-0.031-1.008-0.076-1.894-0.139-2.652l0.238,0.035
	c0.711,0.044,1.152,0.068,1.313,0.068h0.258c0.07-0.018,0.33-0.036,0.777-0.049c0.463-0.036,0.938-0.054,1.428-0.054
	c0.674,0,1.213,0.046,1.619,0.14c0.408,0.097,0.783,0.258,1.127,0.492c0.699,0.503,1.049,1.387,1.049,2.656
	c0,0.961-0.309,1.737-0.932,2.337c-0.283,0.279-0.641,0.507-1.066,0.687c-0.342,0.139-0.67,0.23-0.992,0.273
	c-0.32,0.046-0.982,0.09-1.99,0.13L144.844,15.635L144.844,15.635z M144.877,9.957c-0.023,0.868-0.033,1.417-0.033,1.652v3.08
	c0.395-0.015,0.721-0.05,0.982-0.103c0.531-0.109,0.916-0.343,1.145-0.706c0.225-0.367,0.342-0.924,0.342-1.669
	c0-1.539-0.604-2.307-1.813-2.307C145.447,9.903,145.24,9.92,144.877,9.957L144.877,9.957z M161.307,9.586l-0.453,2.113h-0.256
	c-0.439-1.292-1.457-1.938-3.051-1.938c-0.574,0-1.096,0.118-1.566,0.353c-0.471,0.233-0.875,0.574-1.213,1.022
	c-0.34,0.449-0.596,0.981-0.77,1.598c-0.174,0.616-0.262,1.308-0.262,2.076c0,0.683,0.082,1.352,0.246,2.009
	c0.164,0.652,0.391,1.21,0.686,1.665c0.301,0.434,0.723,0.78,1.262,1.038c0.545,0.258,1.131,0.385,1.773,0.385
	c0.615,0,1.211-0.111,1.785-0.333c0.574-0.22,1.064-0.524,1.475-0.915l0.221,0.054l-0.398,1.46l-0.203,0.091
	c-0.756,0.271-1.361,0.455-1.814,0.547c-0.457,0.09-0.984,0.139-1.584,0.139c-0.928,0-1.775-0.144-2.547-0.431
	c-0.768-0.285-1.426-0.695-1.977-1.229c-0.551-0.537-0.975-1.175-1.271-1.92c-0.295-0.746-0.445-1.563-0.445-2.457
	c0-0.92,0.154-1.762,0.461-2.524c0.311-0.766,0.754-1.423,1.336-1.969c0.576-0.553,1.27-0.97,2.074-1.262
	c0.807-0.29,1.695-0.436,2.664-0.436c0.689,0,1.328,0.068,1.91,0.2C159.971,9.053,160.609,9.276,161.307,9.586L161.307,9.586z
	 M171.918,8.971c-0.051,0.056-0.092,0.098-0.117,0.126c-0.023,0.032-0.049,0.052-0.072,0.069c-0.049,0.051-0.154,0.161-0.314,0.331
	c-0.162,0.172-0.336,0.359-0.531,0.564c-0.418,0.442-0.723,0.771-0.91,0.985l-2.551,2.801l4.773,6.856h-3.258l-0.156-0.229
	l-0.879-1.516l-2.328-4.045h-0.133l0.066,3.784c0.027,0.945,0.074,1.614,0.139,2.007h-2.809c0.02-0.161,0.037-0.272,0.051-0.334
	c0.02-0.268,0.039-0.695,0.053-1.285c0.045-1.11,0.066-1.821,0.066-2.124v-3.63c0-1.461-0.049-2.833-0.154-4.115l-0.016-0.246h2.809
	l-0.018,0.246l-0.07,0.898l-0.049,1.02l-0.053,3.149h0.102l2.104-2.515c0.113-0.116,0.51-0.613,1.191-1.495
	c0.402-0.505,0.713-0.939,0.93-1.302H171.918L171.918,8.971z M183.467,8.971c0,0.047-0.002,0.101-0.01,0.157
	c-0.004,0.062-0.008,0.103-0.008,0.126c-0.037,0.333-0.066,0.879-0.082,1.631c-0.051,0.906-0.072,1.538-0.072,1.903v4.589
	c0,0.003,0.021,0.548,0.072,1.637c0.043,0.833,0.063,1.269,0.064,1.319c0.004,0.032,0.014,0.091,0.02,0.176
	c0.006,0.086,0.012,0.15,0.014,0.194h-2.785c0.012-0.081,0.016-0.17,0.016-0.261c0.039-0.541,0.059-0.957,0.064-1.252
	c0.025-0.446,0.035-0.926,0.035-1.442v-5.21v-1.653v-0.33l-3.135,7.07l-0.625,1.407c-0.324,0.726-0.525,1.196-0.602,1.41
	c-0.014,0.023-0.047,0.111-0.107,0.261h-3.273c0.043-0.143,0.066-0.24,0.066-0.303c0.02-0.044,0.037-0.436,0.053-1.176l0.053-1.512
	v-4.714c0-0.68-0.012-1.355-0.033-2.023c-0.045-0.947-0.09-1.615-0.139-2.005h2.813c-0.033,0.225-0.059,0.359-0.072,0.405
	c0-0.199-0.01,0.334-0.033,1.602l-0.037,1.671v5.119l0.053,1.055l-0.018,0.298l2.639-5.961l0.914-2.04l0.775-1.885l0.121-0.26h3.26
	V8.971z M61.166,28.516c-0.089,0.121-0.152,0.219-0.189,0.305c-0.002,0.002-0.032,0.074-0.089,0.215
	c-0.055,0.137-0.216,0.529-0.481,1.168l-0.398,0.967l-2.155,5.512c-0.151,0.385-0.33,0.941-0.532,1.662
	c-0.205,0.721-0.366,1.354-0.481,1.906h-1.743l1.572-3.467l-1.758,0.461l-0.106-0.318l-0.397-1.039L52.493,31l-0.48-1.182
	l-0.45-1.041l-0.135-0.262h2.896l2.582,7.619l1.881-5.336c0.095-0.266,0.188-0.625,0.276-1.072c0.089-0.445,0.148-0.85,0.172-1.211
	H61.166L61.166,28.516z M72.554,28.516c-0.021,0.234-0.034,0.369-0.034,0.406c-0.03,0.316-0.065,1.043-0.105,2.18
	c-0.022,0.553-0.035,1.109-0.035,1.672v3.361c0,0.443,0.012,0.924,0.035,1.439c0.031,1.008,0.06,1.754,0.09,2.24
	c0.007,0.066,0.013,0.137,0.019,0.203c0.005,0.064,0.014,0.145,0.027,0.23h-2.806c0.035-0.139,0.05-0.244,0.05-0.316l0.032-0.914
	l0.052-1.037v-3.414l-0.254-0.018c-1.567-0.025-2.388-0.037-2.465-0.037c-0.463,0-1.154,0.014-2.068,0.037l-0.278,0.018v3.375
	c0,0.342,0.011,0.676,0.034,1.004c0.026,0.609,0.055,1.045,0.086,1.303h-2.792l0.017-0.369l0.104-2.285l0.05-1.5v-3.271
	c0,0.014-0.01-0.449-0.033-1.387c-0.039-1.008-0.075-1.85-0.105-2.516c-0.006-0.035-0.012-0.1-0.018-0.193
	c-0.01-0.098-0.012-0.17-0.014-0.213h2.792l-0.014,0.244c-0.072,0.752-0.106,1.383-0.106,1.883v2.635
	c0.104,0.016,0.19,0.02,0.263,0.02c0.48,0.023,1.148,0.035,1.997,0.035h0.323c0.968,0,1.692-0.012,2.176-0.035
	c0.076,0,0.181-0.004,0.307-0.02V30.5c0-0.148-0.017-0.439-0.052-0.879c-0.023-0.512-0.05-0.883-0.083-1.107h2.809V28.516z
	 M85.518,28.516c0,0.049-0.002,0.102-0.007,0.158c-0.006,0.063-0.011,0.104-0.011,0.127c-0.037,0.334-0.064,0.879-0.083,1.631
	c-0.048,0.906-0.071,1.539-0.071,1.902v4.592c0,0.004,0.023,0.549,0.071,1.635c0.043,0.834,0.064,1.27,0.066,1.32
	c0.007,0.031,0.016,0.092,0.021,0.178c0.006,0.084,0.012,0.148,0.014,0.191h-2.788c0.012-0.08,0.017-0.17,0.017-0.262
	c0.037-0.537,0.058-0.955,0.066-1.248c0.024-0.447,0.034-0.928,0.034-1.443v-5.211v-1.654v-0.328l-3.137,7.068l-0.624,1.408
	c-0.324,0.727-0.524,1.193-0.601,1.408c-0.016,0.023-0.05,0.113-0.105,0.262h-3.274c0.043-0.141,0.066-0.24,0.066-0.303
	c0.02-0.045,0.038-0.436,0.055-1.176l0.052-1.514v-4.715c0-0.68-0.011-1.352-0.034-2.02c-0.043-0.947-0.09-1.617-0.139-2.008h2.812
	c-0.034,0.229-0.056,0.361-0.071,0.406c0-0.199-0.012,0.334-0.035,1.602l-0.033,1.668v5.119l0.051,1.055l-0.018,0.299l2.641-5.959
	l0.915-2.043l0.775-1.885l0.122-0.262H85.518L85.518,28.516z M88.086,28.463l0.311,0.018l0.896,0.035l0.948,0.051
	c0.46,0,0.846-0.016,1.155-0.051c0.479-0.035,0.8-0.053,0.965-0.053c0.717,0,1.347,0.109,1.885,0.326
	c0.537,0.221,0.947,0.535,1.234,0.943c0.29,0.414,0.434,0.895,0.434,1.439c0,0.537-0.144,1.018-0.434,1.432
	c-0.287,0.42-0.691,0.742-1.215,0.977c-0.52,0.229-1.129,0.352-1.825,0.359v0.105c0.606,0.014,1.014,0.037,1.229,0.068
	c0.216,0.029,0.51,0.111,0.879,0.244c0.5,0.188,0.898,0.508,1.193,0.971c0.295,0.461,0.444,1,0.444,1.617
	c0,0.672-0.155,1.258-0.468,1.762c-0.313,0.502-0.762,0.893-1.339,1.166s-1.247,0.412-2.004,0.412h-0.174l-2.634-0.088L88.43,40.25
	l-0.346,0.02c0.022-0.186,0.037-0.314,0.053-0.387c0,0.002,0.01-0.344,0.035-1.037l0.085-2.307v-4.453
	c0-0.621-0.03-1.455-0.085-2.496C88.144,29.057,88.116,28.68,88.086,28.463L88.086,28.463z M90.824,29.484
	c0,0.039-0.003,0.072-0.008,0.111c-0.003,0.037-0.006,0.059-0.006,0.064c0,0.018-0.004,0.096-0.01,0.242
	c-0.005,0.143-0.008,0.279-0.008,0.41l-0.033,0.824v2.5c0.079,0.012,0.165,0.016,0.255,0.016c1.583,0,2.377-0.762,2.377-2.281
	c0-1.268-0.659-1.906-1.978-1.906c-0.126,0-0.265,0.008-0.418,0.02H90.824L90.824,29.484z M90.759,34.602v2.885
	c0,0.008,0.001,0.121,0.008,0.334c0.005,0.217,0.008,0.426,0.008,0.633c0.012,0.225,0.017,0.43,0.017,0.619
	c0,0.01,0.002,0.031,0.008,0.074c0.005,0.037,0.01,0.072,0.01,0.102c0.241,0.057,0.459,0.084,0.654,0.084
	c0.426,0,0.79-0.094,1.096-0.281c0.308-0.191,0.543-0.469,0.706-0.838c0.162-0.365,0.244-0.801,0.244-1.307
	c0-1.547-0.778-2.322-2.342-2.322C91.034,34.586,90.896,34.592,90.759,34.602L90.759,34.602z M104.734,28.48v1.479l-0.326-0.02
	l-1.899-0.102l-1.413-0.057h-0.172v0.178l-0.018,0.723l-0.018,0.699v2.055c0.084,0.012,0.155,0.018,0.225,0.018
	c0.289,0,0.828-0.018,1.619-0.053l1.654-0.074l0.293-0.018v1.482h-0.311l-1.773-0.102l-1.552-0.037h-0.155v2.729
	c0,0.361,0.023,0.906,0.07,1.633L101.168,39l1.121-0.053l1.15-0.092l1.002-0.084l0.309-0.033v1.531l-0.242-0.02l-1.686-0.02
	l-1.898-0.051c0.002,0-0.4,0.014-1.207,0.039c-0.31,0.01-0.729,0.027-1.261,0.047h-0.237c0.113-0.98,0.174-2.266,0.174-3.854v-4.188
	l-0.066-2.162l-0.09-1.305l-0.018-0.277c1.052,0.057,2.074,0.084,3.068,0.084c0.979,0,2.027-0.023,3.156-0.066L104.734,28.48
	L104.734,28.48z M109.426,35.18v2.715c0,0,0.01,0.326,0.033,0.986c0.012,0.506,0.047,0.961,0.105,1.369h-2.811
	c0.02-0.211,0.031-0.313,0.031-0.303c0.02-0.189,0.047-0.787,0.088-1.787c0.035-1.201,0.051-1.846,0.051-1.939v-2.973
	c0-0.672-0.012-1.381-0.031-2.131c-0.029-1.008-0.074-1.896-0.139-2.654l0.238,0.037c0.713,0.043,1.152,0.066,1.313,0.066h0.256
	c0.072-0.016,0.332-0.035,0.779-0.051c0.465-0.035,0.938-0.053,1.428-0.053c0.676,0,1.215,0.049,1.623,0.143
	c0.406,0.096,0.781,0.256,1.123,0.49c0.699,0.502,1.051,1.387,1.051,2.656c0,0.961-0.311,1.74-0.934,2.338
	c-0.283,0.279-0.643,0.508-1.068,0.689c-0.342,0.137-0.668,0.229-0.992,0.271c-0.318,0.043-0.98,0.086-1.988,0.129H109.426
	L109.426,35.18z M109.459,29.5c-0.023,0.869-0.033,1.42-0.033,1.656v3.076c0.393-0.016,0.721-0.049,0.982-0.102
	c0.529-0.109,0.914-0.344,1.143-0.707c0.227-0.365,0.344-0.924,0.344-1.668c0-1.537-0.605-2.307-1.813-2.307
	C110.029,29.447,109.82,29.465,109.459,29.5L109.459,29.5z M125.885,29.133l-0.449,2.111h-0.256
	c-0.438-1.291-1.457-1.936-3.051-1.936c-0.574,0-1.094,0.119-1.564,0.352c-0.473,0.234-0.877,0.574-1.217,1.023
	c-0.34,0.447-0.594,0.982-0.768,1.598s-0.26,1.307-0.26,2.074c0,0.686,0.078,1.354,0.244,2.012c0.162,0.652,0.389,1.209,0.686,1.664
	c0.301,0.434,0.721,0.779,1.262,1.037c0.543,0.258,1.133,0.387,1.771,0.387c0.617,0,1.211-0.113,1.785-0.334
	s1.064-0.525,1.475-0.914l0.223,0.053l-0.4,1.461l-0.203,0.088c-0.754,0.273-1.361,0.455-1.816,0.549
	c-0.455,0.09-0.98,0.139-1.582,0.139c-0.93,0-1.775-0.145-2.547-0.432c-0.766-0.285-1.426-0.693-1.977-1.229
	c-0.555-0.537-0.975-1.178-1.271-1.918c-0.295-0.746-0.445-1.564-0.445-2.457c0-0.922,0.156-1.764,0.465-2.525
	c0.309-0.766,0.75-1.424,1.332-1.971c0.576-0.553,1.273-0.971,2.074-1.262c0.809-0.289,1.695-0.436,2.664-0.436
	c0.691,0,1.326,0.068,1.912,0.201C124.555,28.598,125.191,28.822,125.885,29.133L125.885,29.133z M137.828,28.516
	c0,0.049-0.002,0.102-0.008,0.158c-0.006,0.063-0.01,0.104-0.01,0.127c-0.037,0.334-0.064,0.879-0.084,1.631
	c-0.047,0.906-0.07,1.539-0.07,1.902v4.592c0,0.004,0.023,0.549,0.07,1.635c0.043,0.834,0.064,1.27,0.066,1.32
	c0.008,0.031,0.016,0.092,0.023,0.178c0.004,0.084,0.012,0.148,0.014,0.191h-2.787c0.012-0.08,0.018-0.17,0.018-0.262
	c0.039-0.537,0.057-0.955,0.064-1.248c0.025-0.447,0.037-0.928,0.037-1.443v-5.211v-1.654v-0.328l-3.139,7.068l-0.625,1.408
	c-0.324,0.727-0.523,1.193-0.6,1.408c-0.014,0.023-0.051,0.113-0.105,0.262h-3.277c0.045-0.141,0.068-0.24,0.068-0.303
	c0.02-0.045,0.035-0.436,0.053-1.176l0.051-1.514v-4.715c0-0.68-0.012-1.352-0.033-2.02c-0.043-0.947-0.09-1.617-0.139-2.008h2.813
	c-0.035,0.229-0.059,0.361-0.072,0.406c0-0.199-0.012,0.334-0.035,1.602l-0.033,1.668v5.119l0.051,1.055l-0.018,0.299l2.641-5.959
	l0.914-2.043l0.775-1.885l0.121-0.262H137.828L137.828,28.516z M148.465,28.463v1.566l-0.225-0.037
	c-1.037-0.117-1.869-0.174-2.5-0.174c-0.15,0-0.305,0.006-0.465,0.02v0.225c-0.035,0.602-0.053,1.459-0.053,2.568v3.289
	c0-0.078,0.014,0.609,0.035,2.064c0.023,0.926,0.07,1.682,0.137,2.268h-2.859c0.049-0.416,0.092-1.096,0.119-2.041l0.051-2.25
	v-3.135l-0.035-1.479l-0.016-1.244V29.84c-0.092-0.016-0.172-0.021-0.242-0.021h-0.205c-0.627,0-1.459,0.059-2.5,0.178l-0.24,0.033
	v-1.566l0.295,0.018l1.1,0.051c0.766,0.047,1.816,0.068,3.154,0.068c0.727,0,1.65-0.008,2.777-0.033
	C147.582,28.529,148.141,28.5,148.465,28.463L148.465,28.463z M156.6,28.48v1.479l-0.326-0.02l-1.896-0.102l-1.416-0.057h-0.172
	v0.178l-0.018,0.723l-0.016,0.699v2.055c0.08,0.012,0.154,0.018,0.223,0.018c0.291,0,0.826-0.018,1.621-0.053l1.652-0.074
	l0.293-0.018v1.482h-0.309l-1.777-0.102l-1.551-0.037h-0.154v2.729c0,0.361,0.023,0.906,0.068,1.633L153.031,39l1.121-0.053
	l1.152-0.092l1.004-0.084l0.307-0.033v1.531l-0.242-0.02l-1.686-0.02l-1.898-0.051c0.002,0-0.402,0.014-1.207,0.039
	c-0.311,0.01-0.73,0.027-1.262,0.047h-0.238c0.115-0.98,0.172-2.266,0.172-3.854v-4.188l-0.066-2.162l-0.088-1.305l-0.018-0.279
	c1.051,0.057,2.074,0.086,3.066,0.086c0.979,0,2.029-0.023,3.158-0.066L156.6,28.48L156.6,28.48z M166.684,28.463v1.566
	l-0.223-0.037c-1.033-0.117-1.867-0.174-2.5-0.174c-0.148,0-0.305,0.006-0.465,0.02v0.225c-0.035,0.602-0.049,1.459-0.049,2.568
	v3.289c0-0.078,0.008,0.609,0.029,2.064c0.027,0.926,0.072,1.682,0.139,2.268h-2.861c0.053-0.416,0.096-1.096,0.121-2.041
	l0.051-2.25v-3.135l-0.031-1.479l-0.02-1.244V29.84c-0.092-0.016-0.17-0.021-0.244-0.021h-0.205c-0.623,0-1.457,0.059-2.498,0.178
	l-0.242,0.033v-1.566l0.297,0.018l1.102,0.051c0.762,0.047,1.816,0.068,3.154,0.068c0.723,0,1.648-0.008,2.775-0.033
	C165.805,28.529,166.363,28.5,166.684,28.463L166.684,28.463z"/>
</svg>
